<?xml version="1.0" encoding="utf-8"?>
<!-- Generator: Adobe Illustrator 21.0.2, SVG Export Plug-In . SVG Version: 6.00 Build 0)  -->
<svg version="1.1" id="Layer_1" xmlns="http://www.w3.org/2000/svg" xmlns:xlink="http://www.w3.org/1999/xlink" x="0px" y="0px"
	 viewBox="0 0 14 16" style="enable-background:new 0 0 14 16;" xml:space="preserve">
<style type="text/css">
	.st0{fill:#3378E1;}
</style>
<title>Group 4</title>
<desc>Created with Sketch.</desc>
<g>
	<path class="st0" d="M7,8c2.2,0,4-1.8,4-4S9.2,0,7,0C4.8,0,3,1.8,3,4S4.8,8,7,8z M7,2c1.1,0,2,0.9,2,2S8.1,6,7,6C5.9,6,5,5.1,5,4
		S5.9,2,7,2z"/>
	<path class="st0" d="M8,9H6c-3.3,0-6,2.7-6,6c0,0.6,0.4,1,1,1h12c0.6,0,1-0.4,1-1C14,11.7,11.3,9,8,9z M2.1,14c0.4-1.7,2-3,3.9-3h2
		c1.9,0,3.4,1.3,3.9,3H2.1z"/>
</g>
</svg>
