<?xml version="1.0" encoding="utf-8"?>
<!-- Generator: Adobe Illustrator 21.0.2, SVG Export Plug-In . SVG Version: 6.00 Build 0)  -->
<svg version="1.1" id="Layer_1" xmlns="http://www.w3.org/2000/svg" xmlns:xlink="http://www.w3.org/1999/xlink" x="0px" y="0px"
	 viewBox="0 0 12 16" style="enable-background:new 0 0 12 16;" xml:space="preserve">
<style type="text/css">
	.st0{fill:#3378E1;}
</style>
<title>Group 20</title>
<desc>Created with Sketch.</desc>
<g>
	<path class="st0" d="M6,10c1.7,0,3-1.3,3-3V3c0-1.7-1.3-3-3-3S3,1.3,3,3v4C3,8.6,4.3,10,6,10z M5,3c0-0.6,0.4-1,1-1s1,0.4,1,1v4
		c0,0.6-0.4,1-1,1S5,7.5,5,7V3z"/>
	<path class="st0" d="M11,3c-0.6,0-1,0.4-1,1v3c0,2.2-1.8,4-4,4c-2.2,0-4-1.8-4-4V4c0-0.6-0.4-1-1-1S0,3.4,0,4v3c0,3,2.2,5.4,5,5.9
		V14H4c-0.6,0-1,0.4-1,1s0.4,1,1,1h4c0.6,0,1-0.4,1-1s-0.4-1-1-1H7v-1.1c2.8-0.5,5-2.9,5-5.9V4C12,3.4,11.6,3,11,3z"/>
</g>
</svg>
