<?xml version="1.0" encoding="utf-8"?>
<!-- Generator: Adobe Illustrator 21.0.2, SVG Export Plug-In . SVG Version: 6.00 Build 0)  -->
<svg version="1.1" id="Layer_1" xmlns="http://www.w3.org/2000/svg" xmlns:xlink="http://www.w3.org/1999/xlink" x="0px" y="0px"
	 viewBox="0 0 16 16" style="enable-background:new 0 0 16 16;" xml:space="preserve">
<style type="text/css">
	.st0{fill:#3378E1;}
</style>
<title>Group 19</title>
<desc>Created with Sketch.</desc>
<path class="st0" d="M15.6,0.2C15.4,0,15,0,14.7,0L8,2L1.3,0C1,0,0.6,0,0.4,0.2S0,0.7,0,1v12c0,0.4,0.3,0.8,0.7,1l7,2
	c0.1,0,0.2,0,0.3,0s0.2,0,0.3,0l7-2c0.4-0.1,0.7-0.5,0.7-1V1C16,0.7,15.9,0.4,15.6,0.2z M2,2.3l5,1.4v9.9l-5-1.4V2.3z M14,12.2
	l-5,1.4V3.8l5-1.4V12.2z"/>
</svg>
