<?xml version="1.0" encoding="utf-8"?>
<!-- Generator: Adobe Illustrator 21.0.2, SVG Export Plug-In . SVG Version: 6.00 Build 0)  -->
<svg version="1.1" id="Layer_1" xmlns="http://www.w3.org/2000/svg" xmlns:xlink="http://www.w3.org/1999/xlink" x="0px" y="0px"
	 viewBox="0 0 16 15.992" style="enable-background:new 0 0 16 15.992;" xml:space="preserve">
<style type="text/css">
	.st0{fill:#B8C0CF;}
</style>
<title>Group 7</title>
<desc>Created with Sketch.</desc>
<g>
	<path class="st0" d="M6,7H5C4.448,7,4,7.448,4,8s0.448,1,1,1h1c0.552,0,1-0.448,1-1S6.552,7,6,7z"/>
	<path class="st0" d="M11,7h-1C9.447,7,9,7.448,9,8s0.447,1,1,1h1c0.553,0,1-0.448,1-1S11.553,7,11,7z"/>
	<path class="st0" d="M6,10H5c-0.552,0-1,0.447-1,1s0.448,1,1,1h1c0.552,0,1-0.447,1-1S6.552,10,6,10z"/>
	<path class="st0" d="M11,10h-1c-0.553,0-1,0.447-1,1s0.447,1,1,1h1c0.553,0,1-0.447,1-1S11.553,10,11,10z"/>
	<path class="st0" d="M14,2h-1V1c0-0.552-0.447-1-1-1s-1,0.448-1,1v1H5V1c0-0.552-0.448-1-1-1S3,0.448,3,1v1H2C0.897,2,0,2.897,0,4
		v9.994c0,1.103,0.897,1.999,2,1.999h12c1.103,0,2-0.896,2-1.999V4C16,2.897,15.102,2,14,2z M2,13.993V4l1,0v0.998
		c0,0.552,0.448,1,1,1s1-0.448,1-1V4l6,0v0.998c0,0.552,0.447,1,1,1s1-0.448,1-1V4l1,0l0.002,9.993L2,13.993z"/>
</g>
</svg>
