<?xml version="1.0" encoding="utf-8"?>
<!-- Generator: Adobe Illustrator 21.0.2, SVG Export Plug-In . SVG Version: 6.00 Build 0)  -->
<svg version="1.1" id="Layer_1" xmlns="http://www.w3.org/2000/svg" xmlns:xlink="http://www.w3.org/1999/xlink" x="0px" y="0px"
	 viewBox="0 0 14 16" style="enable-background:new 0 0 14 16;" xml:space="preserve">
<style type="text/css">
	.st0{fill:#3378E1;}
</style>
<title>Group 25</title>
<desc>Created with Sketch.</desc>
<g>
	<path class="st0" d="M10,7H4C3.4,7,3,7.4,3,8s0.4,1,1,1h6c0.6,0,1-0.4,1-1S10.6,7,10,7z"/>
	<path class="st0" d="M10,10H4c-0.6,0-1,0.4-1,1s0.4,1,1,1h6c0.6,0,1-0.4,1-1S10.6,10,10,10z"/>
	<path class="st0" d="M12,0H2C0.9,0,0,0.9,0,2v12c0,1.1,0.9,2,2,2h10c1.1,0,2-0.9,2-2V2C14,0.9,13.1,0,12,0z M2,14V2l10,0l0,12H2z"
		/>
	<path class="st0" d="M10,4H4C3.4,4,3,4.4,3,5s0.4,1,1,1h6c0.6,0,1-0.4,1-1S10.6,4,10,4z"/>
</g>
</svg>
