<?xml version="1.0" encoding="utf-8"?>
<!-- Generator: Adobe Illustrator 21.0.2, SVG Export Plug-In . SVG Version: 6.00 Build 0)  -->
<svg version="1.1" id="Layer_1" xmlns="http://www.w3.org/2000/svg" xmlns:xlink="http://www.w3.org/1999/xlink" x="0px" y="0px"
	 viewBox="0 0 16 17" style="enable-background:new 0 0 16 17;" xml:space="preserve">
<style type="text/css">
	.st0{fill:#B8C0CF;}
</style>
<title>Group 2</title>
<desc>Created with Sketch.</desc>
<g>
	<path class="st0" d="M7.3,11.7C7.3,11.7,7.3,11.7,7.3,11.7C7.3,11.7,7.3,11.7,7.3,11.7c0.1,0.1,0.2,0.2,0.3,0.2C7.7,12,7.9,12,8,12
		s0.3,0,0.4-0.1c0.1-0.1,0.2-0.1,0.3-0.2c0,0,0,0,0,0c0,0,0,0,0,0l2-2c0.4-0.4,0.4-1,0-1.4c-0.4-0.4-1-0.4-1.4,0L9,8.6V1
		c0-0.6-0.4-1-1-1S7,0.5,7,1v7.6L6.7,8.3c-0.4-0.4-1-0.4-1.4,0c-0.4,0.4-0.4,1,0,1.4L7.3,11.7z"/>
	<path class="st0" d="M15,10c-0.6,0-1,0.4-1,1v4L2,15v-4c0-0.6-0.4-1-1-1s-1,0.4-1,1v4c0,1.1,0.9,2,2,2h12c1.1,0,2-0.9,2-2v-4
		C16,10.4,15.6,10,15,10z"/>
</g>
</svg>
