<?xml version="1.0" encoding="utf-8"?>
<!-- Generator: Adobe Illustrator 21.0.2, SVG Export Plug-In . SVG Version: 6.00 Build 0)  -->
<svg version="1.1" id="Layer_1" xmlns="http://www.w3.org/2000/svg" xmlns:xlink="http://www.w3.org/1999/xlink" x="0px" y="0px"
	 viewBox="0 0 16 15.991" style="enable-background:new 0 0 16 15.991;" xml:space="preserve">
<style type="text/css">
	.st0{fill:#8DFFC9;}
</style>
<title>Group 8</title>
<desc>Created with Sketch.</desc>
<g>
	<path class="st0" d="M15,13.991H2V1c0-0.552-0.448-1-1-1S0,0.448,0,1v12.991c0,1.103,0.897,2,2,2h13c0.553,0,1-0.447,1-1
		S15.552,13.991,15,13.991z"/>
	<path class="st0" d="M4,12.997c0.552,0,1-0.447,1-1V7c0-0.552-0.448-1-1-1S3,6.448,3,7v4.997C3,12.55,3.448,12.997,4,12.997z"/>
	<path class="st0" d="M7,12.994c0.552,0,1-0.447,1-1V3c0-0.552-0.448-1-1-1S6,2.448,6,3v8.994C6,12.547,6.448,12.994,7,12.994z"/>
	<path class="st0" d="M10,12.999c0.553,0,1-0.447,1-1V10c0-0.553-0.447-1-1-1s-1,0.447-1,1v1.999C9,12.552,9.447,12.999,10,12.999z"
		/>
	<path class="st0" d="M13,12.996c0.553,0,1-0.447,1-1V6c0-0.552-0.447-1-1-1s-1,0.448-1,1v5.996C12,12.549,12.447,12.996,13,12.996z
		"/>
</g>
</svg>
