<?xml version="1.0" encoding="utf-8"?>
<!-- Generator: Adobe Illustrator 21.0.2, SVG Export Plug-In . SVG Version: 6.00 Build 0)  -->
<svg version="1.1" id="Layer_1" xmlns="http://www.w3.org/2000/svg" xmlns:xlink="http://www.w3.org/1999/xlink" x="0px" y="0px"
	 viewBox="0 0 16 16" style="enable-background:new 0 0 16 16;" xml:space="preserve">
<style type="text/css">
	.st0{fill:#3378E1;}
</style>
<title>Group 22</title>
<desc>Created with Sketch.</desc>
<g id="_x30_6_x5F_Search">
	
		<g id="DCT-GO-_x2F_-06_x5F_Search-_x2F_-Desktop-_x2F_-06_x5F_01_x5F_02_x5F_Category-picker" transform="translate(-262.000000, -340.000000)">
		<g id="Search-submenu" transform="translate(250.000000, 117.000000)">
			<g id="Group-22" transform="translate(13.000000, 224.000000)">
				<g id="Stroke-393">
					<path class="st0" d="M13,15H1c-1.1,0-2-0.9-2-2V1c0-1.1,0.9-2,2-2h12c1.1,0,2,0.9,2,2v12C15,14.1,14.1,15,13,15z M13,1L1,1v12
						h12L13,1z"/>
				</g>
				<g id="Fill-394">
					<path class="st0" d="M5,10c0,0.6-0.4,1-1,1s-1-0.4-1-1c0-0.6,0.4-1,1-1S5,9.4,5,10"/>
				</g>
				<g id="Fill-395">
					<path class="st0" d="M11,4c0,0.6-0.4,1-1,1S9,4.6,9,4s0.4-1,1-1S11,3.4,11,4"/>
				</g>
				<g id="Fill-396">
					<path class="st0" d="M5,4c0,0.6-0.4,1-1,1S3,4.6,3,4s0.4-1,1-1S5,3.4,5,4"/>
				</g>
				<g id="Fill-397">
					<path class="st0" d="M11,10c0,0.6-0.4,1-1,1s-1-0.4-1-1c0-0.6,0.4-1,1-1S11,9.4,11,10"/>
				</g>
				<g id="Fill-398">
					<path class="st0" d="M8,7c0,0.6-0.4,1-1,1S6,7.6,6,7s0.4-1,1-1S8,6.4,8,7"/>
				</g>
			</g>
		</g>
	</g>
</g>
</svg>
