<?xml version="1.0" encoding="utf-8"?>
<!-- Generator: Adobe Illustrator 21.0.2, SVG Export Plug-In . SVG Version: 6.00 Build 0)  -->
<svg version="1.1" id="Layer_1" xmlns="http://www.w3.org/2000/svg" xmlns:xlink="http://www.w3.org/1999/xlink" x="0px" y="0px"
	 viewBox="0 0 16 16" style="enable-background:new 0 0 16 16;" xml:space="preserve">
<style type="text/css">
	.st0{fill:#3378E1;}
</style>
<title>Group 18</title>
<desc>Created with Sketch.</desc>
<path class="st0" d="M15,9.3V7c0-3.9-3.1-7-7-7C4.1,0,1,3.1,1,7v2.3c-0.6,0.3-1,1-1,1.7v3c0,1.1,0.9,2,2,2h1c1.1,0,2-0.9,2-2v-3
	c0-1.1-0.9-2-2-2V7c0-2.8,2.2-5,5-5s5,2.2,5,5v2c-1.1,0-2,0.9-2,2v3c0,1.1,0.9,2,2,2h1c1.1,0,2-0.9,2-2v-3C16,10.3,15.6,9.6,15,9.3z
	 M3,14H2v-3l1,0L3,14z M13,14v-3l1,0l0,3H13z"/>
</svg>
