<?xml version="1.0" encoding="utf-8"?>
<!-- Generator: Adobe Illustrator 21.0.2, SVG Export Plug-In . SVG Version: 6.00 Build 0)  -->
<svg version="1.1" id="Layer_1" xmlns="http://www.w3.org/2000/svg" xmlns:xlink="http://www.w3.org/1999/xlink" x="0px" y="0px"
	 viewBox="0 0 10 10" style="enable-background:new 0 0 10 10;" xml:space="preserve">
<style type="text/css">
	.st0{fill:#7F8A9E;}
</style>
<title>Edit icon</title>
<desc>Created with Sketch.</desc>
<path class="st0" d="M9.707,2.641l-2.35-2.348c-0.389-0.387-1.015-0.39-1.407-0.007L0.3,5.821C0.108,6.009,0,6.267,0,6.535v2.46
	c0,0.553,0.448,1,1,1h2.461c0.269,0,0.526-0.108,0.714-0.3l5.539-5.647C10.098,3.657,10.095,3.029,9.707,2.641z M7.593,3.355
	L6.977,3.983L6.015,3.022l0.628-0.615L7.593,3.355z M3.041,7.995H2v-1.04l3.301-3.233l0.976,0.975L3.041,7.995z"/>
</svg>
