<?xml version="1.0" encoding="utf-8"?>
<!-- Generator: Adobe Illustrator 21.0.2, SVG Export Plug-In . SVG Version: 6.00 Build 0)  -->
<svg version="1.1" id="Layer_1" xmlns="http://www.w3.org/2000/svg" xmlns:xlink="http://www.w3.org/1999/xlink" x="0px" y="0px"
	 viewBox="0 0 32 32" style="enable-background:new 0 0 32 32;" xml:space="preserve">
<style type="text/css">
	.st0{fill:#3378E1;}
</style>
<title>Group 5</title>
<desc>Created with Sketch.</desc>
<g id="Group-6">
	<g>
		<path class="st0" d="M28.857,6.424h-1.729l-6.135-6.132C20.806,0.105,20.551,0,20.286,0h-8.572c-0.265,0-0.52,0.105-0.707,0.292
			L4.872,6.424H3.143C1.41,6.424,0,7.833,0,9.566v19.273c0,1.732,1.41,3.142,3.143,3.142h25.714c1.732,0,3.143-1.409,3.143-3.142
			V9.566C32,7.833,30.59,6.424,28.857,6.424z M30,28.839c0,0.63-0.513,1.142-1.143,1.142H3.143C2.513,29.98,2,29.469,2,28.839V9.566
			c0-0.629,0.513-1.142,1.143-1.142h2.143c0.265,0,0.52-0.105,0.707-0.292L12.128,2h7.744l6.135,6.132
			c0.188,0.187,0.442,0.292,0.707,0.292h2.144c0.63,0,1.143,0.512,1.143,1.142V28.839z"/>
		<path class="st0" d="M15.679,11.749c-3.308,0-5.999,2.692-5.999,6s2.691,6,5.999,6c3.309,0,6.001-2.691,6.001-6
			S18.987,11.749,15.679,11.749z M15.679,21.749c-2.205,0-3.999-1.794-3.999-4s1.794-4,3.999-4c2.206,0,4.001,1.794,4.001,4
			S17.885,21.749,15.679,21.749z"/>
	</g>
</g>
</svg>
