<?xml version="1.0" encoding="utf-8"?>
<!-- Generator: Adobe Illustrator 21.0.2, SVG Export Plug-In . SVG Version: 6.00 Build 0)  -->
<svg version="1.1" id="Layer_1" xmlns="http://www.w3.org/2000/svg" xmlns:xlink="http://www.w3.org/1999/xlink" x="0px" y="0px"
	 viewBox="0 0 16 16" style="enable-background:new 0 0 16 16;" xml:space="preserve">
<style type="text/css">
	.st0{fill:#3378E1;}
</style>
<title>Group 24</title>
<desc>Created with Sketch.</desc>
<g>
	<path class="st0" d="M14,0H2C0.9,0,0,0.9,0,2v12c0,1.1,0.9,2,2,2h12c1.1,0,2-0.9,2-2V2C16,0.9,15.1,0,14,0z M14,2l0,6.6l-1.3-1.3
		c-0.4-0.4-1-0.4-1.4,0L9.1,9.5L5.8,5.4C5.6,5.1,5.3,5,5,5C4.6,5,4.3,5.2,4.2,5.4L2,8.7V2L14,2z M2,14v-1.7l3.1-4.6l3.1,3.9
		C8.4,11.8,8.7,12,8.9,12c0.3,0,0.6-0.1,0.8-0.3L12,9.4l2,2l0,2.6H2z M14,15v-1h0L14,15z"/>
	<circle class="st0" cx="10" cy="5" r="1"/>
</g>
</svg>
