<?xml version="1.0" encoding="utf-8"?>
<!-- Generator: Adobe Illustrator 21.0.2, SVG Export Plug-In . SVG Version: 6.00 Build 0)  -->
<svg version="1.1" id="Layer_1" xmlns="http://www.w3.org/2000/svg" xmlns:xlink="http://www.w3.org/1999/xlink" x="0px" y="0px"
	 viewBox="0 0 14.8 17" style="enable-background:new 0 0 14.8 17;" xml:space="preserve">
<style type="text/css">
	.st0{fill:#FFFFFF;}
</style>
<title>Profile icon</title>
<desc>Created with Sketch.</desc>
<g>
	<path class="st0" d="M7.4,7.7c2.1,0,3.9-1.7,3.9-3.9S9.5,0,7.4,0S3.5,1.7,3.5,3.9S5.3,7.7,7.4,7.7z M7.4,2c1,0,1.9,0.8,1.9,1.9
		c0,1-0.8,1.9-1.9,1.9S5.5,4.9,5.5,3.9C5.5,2.8,6.4,2,7.4,2z"/>
	<path class="st0" d="M7.4,8.6C3.3,8.6,0,11.9,0,16c0,0.6,0.4,1,1,1s1-0.4,1-1c0-3,2.4-5.4,5.4-5.4s5.4,2.4,5.4,5.4c0,0.6,0.4,1,1,1
		s1-0.4,1-1C14.8,11.9,11.5,8.6,7.4,8.6z"/>
</g>
</svg>
