<?xml version="1.0" encoding="utf-8"?>
<!-- Generator: Adobe Illustrator 21.0.2, SVG Export Plug-In . SVG Version: 6.00 Build 0)  -->
<svg version="1.1" id="Layer_1" xmlns="http://www.w3.org/2000/svg" xmlns:xlink="http://www.w3.org/1999/xlink" x="0px" y="0px"
	 viewBox="0 0 16 16.159" style="enable-background:new 0 0 16 16.159;" xml:space="preserve">
<style type="text/css">
	.st0{fill:#3378E1;}
</style>
<title>Group 2</title>
<desc>Created with Sketch.</desc>
<g>
	<path class="st0" d="M16,7.996c0-4.188-3.24-7.628-7.345-7.962C8.599,0.024,8.549,0,8.49,0C8.41,0,8.331,0.01,8.251,0.013
		C8.167,0.01,8.085,0,8,0C7.938,0,7.884,0.025,7.825,0.035C7.477,0.064,7.13,0.108,6.789,0.181C6.25,0.297,5.906,0.83,6.022,1.37
		c0.101,0.469,0.516,0.789,0.977,0.789c0.07,0,0.141-0.007,0.212-0.022c0.341-0.074,0.69-0.11,1.04-0.124
		C11.443,2.146,14,4.774,14,7.996c0,3.306-2.691,5.996-6,5.996c-0.147,0-0.284,0.035-0.41,0.092
		c-0.127-0.019-0.254-0.034-0.379-0.061c-0.543-0.12-1.072,0.227-1.188,0.767s0.227,1.072,0.767,1.188
		c0.559,0.12,1.131,0.182,1.701,0.182c0.255,0,0.482-0.103,0.659-0.26C13.016,15.339,16,12.013,16,7.996z"/>
	<path class="st0" d="M2.113,9.583C2.038,9.204,2,8.812,2,8.419c0-0.385,0.037-0.77,0.109-1.146c0.104-0.542-0.25-1.067-0.792-1.171
		C0.773,6,0.25,6.352,0.146,6.894C0.049,7.395,0,7.908,0,8.42c0,0.522,0.051,1.043,0.15,1.548c0.094,0.477,0.512,0.808,0.98,0.808
		c0.063,0,0.128-0.006,0.193-0.019C1.866,10.65,2.219,10.125,2.113,9.583z"/>
	<path class="st0" d="M1.591,5.427C1.76,5.538,1.951,5.591,2.139,5.591c0.326,0,0.646-0.159,0.837-0.452
		c0.427-0.652,0.97-1.208,1.612-1.653c0.454-0.315,0.567-0.938,0.253-1.392C4.525,1.641,3.902,1.527,3.449,1.842
		C2.594,2.434,1.872,3.175,1.303,4.042C1,4.504,1.129,5.125,1.591,5.427z"/>
	<path class="st0" d="M2.985,11.713c-0.304-0.46-0.922-0.587-1.386-0.283c-0.46,0.304-0.587,0.924-0.283,1.385
		c0.573,0.867,1.297,1.605,2.153,2.194c0.173,0.119,0.37,0.176,0.565,0.176c0.318,0,0.631-0.151,0.825-0.434
		c0.312-0.455,0.197-1.077-0.258-1.391C3.959,12.918,3.416,12.364,2.985,11.713z"/>
	<path class="st0" d="M7.292,10.706c0.059,0.059,0.131,0.091,0.199,0.132c0.042,0.026,0.076,0.062,0.122,0.081
		c0.124,0.052,0.255,0.08,0.387,0.08s0.263-0.028,0.387-0.08c0.046-0.019,0.08-0.056,0.122-0.081
		c0.068-0.041,0.14-0.073,0.199-0.132c0,0,0.001-0.001,0.001-0.001l1.999-1.997c0.391-0.391,0.391-1.024,0-1.415
		s-1.023-0.39-1.414,0L9,7.585V6c0-0.552-0.448-1-1-1S7,5.448,7,6v1.585L6.707,7.292c-0.391-0.39-1.024-0.39-1.415,0
		c-0.39,0.391-0.39,1.024,0,1.415l1.999,1.997C7.292,10.705,7.292,10.706,7.292,10.706z"/>
</g>
</svg>
