<?xml version="1.0" encoding="utf-8"?>
<!-- Generator: Adobe Illustrator 21.0.2, SVG Export Plug-In . SVG Version: 6.00 Build 0)  -->
<svg version="1.1" id="Layer_1" xmlns="http://www.w3.org/2000/svg" xmlns:xlink="http://www.w3.org/1999/xlink" x="0px" y="0px"
	 viewBox="0 0 16 16" style="enable-background:new 0 0 16 16;" xml:space="preserve">
<style type="text/css">
	.st0{fill:#8DFFC9;}
</style>
<g>
	<title>Group 4</title>
	<desc>Created with Sketch.</desc>
	<g>
		<path class="st0" d="M8,0C3.589,0,0,3.587,0,7.996s3.589,7.996,8,7.996s8-3.587,8-7.996S12.411,0,8,0z M8,13.991
			c-3.309,0-6-2.689-6-5.996S4.691,2,8,2s6,2.689,6,5.996S11.309,13.991,8,13.991z"/>
		<path class="st0" d="M8,4C7.448,4,7,4.448,7,5v2.998c0,0.552,0.448,1,1,1s1-0.448,1-1V5C9,4.448,8.552,4,8,4z"/>
		<circle class="st0" cx="8" cy="10.999" r="1"/>
	</g>
</g>
</svg>
