<?xml version="1.0" encoding="utf-8"?>
<!-- Generator: Adobe Illustrator 21.0.2, SVG Export Plug-In . SVG Version: 6.00 Build 0)  -->
<svg version="1.1" id="Layer_1" xmlns="http://www.w3.org/2000/svg" xmlns:xlink="http://www.w3.org/1999/xlink" x="0px" y="0px"
	 viewBox="0 0 16 16" style="enable-background:new 0 0 16 16;" xml:space="preserve">
<style type="text/css">
	.st0{fill:#FFFFFF;}
</style>
<title>Search icon</title>
<desc>Created with Sketch.</desc>
<path class="st0" d="M15.7,14.3l-4-4C12.5,9.3,13,7.9,13,6.5C13,2.9,10.1,0,6.5,0S0,2.9,0,6.5C0,10.1,2.9,13,6.5,13
	c1.4,0,2.7-0.5,3.8-1.3l4,4c0.2,0.2,0.5,0.3,0.7,0.3s0.5-0.1,0.7-0.3C16.1,15.3,16.1,14.7,15.7,14.3z M6.5,11C4,11,2,9,2,6.5
	S4,2,6.5,2S11,4,11,6.5S9,11,6.5,11z"/>
</svg>
