<?xml version="1.0" encoding="utf-8"?>
<!-- Generator: Adobe Illustrator 21.0.2, SVG Export Plug-In . SVG Version: 6.00 Build 0)  -->
<svg version="1.1" id="Layer_1" xmlns="http://www.w3.org/2000/svg" xmlns:xlink="http://www.w3.org/1999/xlink" x="0px" y="0px"
	 viewBox="0 0 12 12.7" style="enable-background:new 0 0 12 12.7;" xml:space="preserve">
<style type="text/css">
	.st0{fill:#6C788D;}
</style>
<title>ic-search</title>
<desc>Created with Sketch.</desc>
<path class="st0" d="M11.8,11.4L9.7,9.3c0.8-1,1.2-2.2,1.2-3.6C11,2.6,8.5,0,5.5,0S0,2.6,0,5.7s2.5,5.7,5.5,5.7c1.2,0,2.3-0.4,3.2-1
	l2.1,2.1c0.1,0.1,0.3,0.2,0.5,0.2s0.4-0.1,0.5-0.2C12.1,12.1,12.1,11.6,11.8,11.4z M1.5,5.7c0-2.3,1.8-4.2,4-4.2s4,1.9,4,4.2
	s-1.8,4.2-4,4.2S1.5,8,1.5,5.7z"/>
</svg>
