<?xml version="1.0" encoding="utf-8"?>
<!-- Generator: Adobe Illustrator 21.0.2, SVG Export Plug-In . SVG Version: 6.00 Build 0)  -->
<svg version="1.1" id="Layer_1" xmlns="http://www.w3.org/2000/svg" xmlns:xlink="http://www.w3.org/1999/xlink" x="0px" y="0px"
	 viewBox="0 0 14 16" style="enable-background:new 0 0 14 16;" xml:space="preserve">
<style type="text/css">
	.st0{fill:#3378E1;}
</style>
<title>Stroke 378</title>
<desc>Created with Sketch.</desc>
<path class="st0" d="M13,2.998c-3.387,0-5.1-2.453-5.168-2.553c-0.371-0.556-1.293-0.556-1.664,0C6.151,0.471,4.425,2.998,1,2.998
	c-0.552,0-1,0.448-1,1c0,0.229,0.059,2.353,2.105,6.443c2.089,4.175,4.212,5.326,4.447,5.444c0.141,0.07,0.294,0.105,0.447,0.105
	s0.307-0.035,0.447-0.105c0.235-0.118,2.358-1.27,4.447-5.444C13.94,6.351,14,4.227,14,3.998C14,3.446,13.553,2.998,13,2.998z
	 M10.105,9.547C8.866,12.023,7.642,13.251,7,13.774c-0.642-0.523-1.866-1.751-3.105-4.228c-1.09-2.179-1.554-3.726-1.75-4.623
	C4.492,4.616,6.106,3.408,7,2.525c0.894,0.882,2.508,2.09,4.855,2.398C11.658,5.824,11.195,7.369,10.105,9.547z"/>
</svg>
