<?xml version="1.0" encoding="utf-8"?>
<!-- Generator: Adobe Illustrator 21.0.2, SVG Export Plug-In . SVG Version: 6.00 Build 0)  -->
<svg version="1.1" id="Layer_1" xmlns="http://www.w3.org/2000/svg" xmlns:xlink="http://www.w3.org/1999/xlink" x="0px" y="0px"
	 viewBox="0 0 16 14" style="enable-background:new 0 0 16 14;" xml:space="preserve">
<style type="text/css">
	.st0{fill:#3378E1;}
</style>
<title>Group 21</title>
<desc>Created with Sketch.</desc>
<g>
	<path class="st0" d="M14,0H2C0.9,0,0,0.9,0,2v7c0,1.1,0.9,2,2,2h12c1.1,0,2-0.9,2-2V2C16,0.9,15.1,0,14,0z M2,9V2l12,0l0,7L2,9z"/>
	<path class="st0" d="M10,12H6c-0.6,0-1,0.4-1,1s0.4,1,1,1h4c0.6,0,1-0.4,1-1S10.6,12,10,12z"/>
</g>
</svg>
