<?xml version="1.0" encoding="utf-8"?>
<!-- Generator: Adobe Illustrator 21.0.2, SVG Export Plug-In . SVG Version: 6.00 Build 0)  -->
<svg version="1.1" id="Layer_1" xmlns="http://www.w3.org/2000/svg" xmlns:xlink="http://www.w3.org/1999/xlink" x="0px" y="0px"
	 viewBox="0 0 10.492 7.541" style="enable-background:new 0 0 10.492 7.541;" xml:space="preserve">
<style type="text/css">
	.st0{fill:#CE1312;}
</style>
<title>Combined Shape</title>
<desc>Created with Sketch.</desc>
<g id="_x30_5_x5F_Publishing">
	
		<g id="DCT-GO-_x2F_-05_x5F_Publishing-_x2F_-Desktop-_x2F_-05_x5F_02_x5F_Artist-Profile-Filling" transform="translate(-994.000000, -635.000000)">
		<g id="Group-7" transform="translate(440.000000, 214.000000)">
			<g id="Youtube" transform="translate(550.000000, 415.000000)">
				<path id="Combined-Shape" class="st0" d="M14.387,7.627c0,0,0.105,0.868,0.105,1.735v0.814c0,0.868-0.105,1.735-0.105,1.735
					s-0.103,0.739-0.417,1.064c-0.399,0.427-0.846,0.429-1.051,0.454c-1.468,0.109-3.673,0.112-3.673,0.112
					s-2.728-0.025-3.567-0.108c-0.233-0.045-0.758-0.031-1.157-0.458c-0.314-0.325-0.417-1.064-0.417-1.064S4,11.043,4,10.175V9.362
					c0-0.867,0.105-1.735,0.105-1.735s0.102-0.739,0.417-1.064c0.399-0.427,0.846-0.429,1.051-0.454C7.041,6,9.244,6,9.244,6h0.005
					c0,0,2.202,0,3.67,0.109c0.205,0.025,0.652,0.027,1.051,0.454C14.284,6.888,14.387,7.627,14.387,7.627z M8.163,11.161
					l2.834-1.501L8.162,8.149L8.163,11.161z"/>
			</g>
		</g>
	</g>
</g>
</svg>
