<?xml version="1.0" encoding="utf-8"?>
<!-- Generator: Adobe Illustrator 21.0.2, SVG Export Plug-In . SVG Version: 6.00 Build 0)  -->
<svg version="1.1" id="Layer_1" xmlns="http://www.w3.org/2000/svg" xmlns:xlink="http://www.w3.org/1999/xlink" x="0px" y="0px"
	 viewBox="0 0 16 16" style="enable-background:new 0 0 16 16;" xml:space="preserve">
<style type="text/css">
	.st0{fill:#3378E1;}
</style>
<title>Group</title>
<desc>Created with Sketch.</desc>
<g>
	<path class="st0" d="M14,4h-1V1c0-0.332-0.165-0.642-0.439-0.828c-0.274-0.186-0.623-0.225-0.932-0.101L1.734,4.027
		C0.758,4.159,0,4.988,0,6v7.995c0,1.103,0.897,1.999,2,1.999h12c1.103,0,2-0.896,2-1.999V6C16,4.897,15.103,4,14,4z M11,4H7.189
		L11,2.477V4z M2,13.994V6l12,0l0.002,7.994L2,13.994z"/>
	<circle class="st0" cx="12" cy="9.999" r="1"/>
</g>
</svg>
