<?xml version="1.0" encoding="utf-8"?>
<!-- Generator: Adobe Illustrator 21.0.2, SVG Export Plug-In . SVG Version: 6.00 Build 0)  -->
<svg version="1.1" id="Layer_1" xmlns="http://www.w3.org/2000/svg" xmlns:xlink="http://www.w3.org/1999/xlink" x="0px" y="0px"
	 viewBox="0 0 16 16" style="enable-background:new 0 0 16 16;" xml:space="preserve">
<style type="text/css">
	.st0{fill:#FFC400;}
</style>
<title>Group 7</title>
<desc>Created with Sketch.</desc>
<g>
	<path class="st0" d="M14,0H2C0.897,0,0,0.897,0,2v11.992c0,1.103,0.897,2,2,2h12c1.103,0,2-0.897,2-2V2C16,0.897,15.103,0,14,0z
		 M2,13.991V2l12,0l0.001,11.992H2z"/>
	<path class="st0" d="M8,7C7.448,7,7,7.448,7,8v2.998c0,0.553,0.448,1,1,1s1-0.447,1-1V8C9,7.448,8.552,7,8,7z"/>
	<circle class="st0" cx="8" cy="4.999" r="1"/>
</g>
</svg>
