<?xml version="1.0" encoding="UTF-8"?>
<svg width="20px" height="20px" viewBox="0 0 20 20" version="1.1" xmlns="http://www.w3.org/2000/svg" xmlns:xlink="http://www.w3.org/1999/xlink">
    <!-- Generator: Sketch 44.1 (41455) - http://www.bohemiancoding.com/sketch -->
    <title>Group 9</title>
    <desc>Created with Sketch.</desc>
    <defs></defs>
    <g id="05_Publishing" stroke="none" stroke-width="1" fill="none" fill-rule="evenodd">
        <g id="DCT-GO-/-05_Publishing-/-Desktop-/-05_02_Artist-Profile-Filling" transform="translate(-990.000000, -629.000000)">
            <g id="Group-7" transform="translate(440.000000, 214.000000)">
                <g id="Group-9" transform="translate(550.000000, 415.000000)">
                    <g id="Youtube">
                        <path d="M0,9.83606557 C0,4.40375629 4.4101201,0 9.85027954,0 C15.290439,0 19.7005591,4.40375629 19.7005591,9.83606557 C19.7005591,15.2683749 15.290439,19.6721311 9.85027954,19.6721311 C4.4101201,19.6721311 0,15.2683749 0,9.83606557 Z" id="back" fill="#CE1312"></path>
                        <path d="M14.9770492,7.85617881 C14.9770492,7.85617881 15.0819672,8.72395983 15.0819672,9.59140581 L15.0819672,10.4049086 C15.0819672,11.2726897 14.9770492,12.1401356 14.9770492,12.1401356 C14.9770492,12.1401356 14.8744262,12.8789222 14.56,13.2042563 C14.1609836,13.6314458 13.7137705,13.6334561 13.5088525,13.6585849 C12.0406557,13.7671413 9.83606557,13.7704918 9.83606557,13.7704918 C9.83606557,13.7704918 7.10819672,13.745028 6.26885246,13.6626055 C6.03540984,13.6180438 5.51114754,13.6314458 5.11180328,13.2042563 C4.79737705,12.8789222 4.69508197,12.1401356 4.69508197,12.1401356 C4.69508197,12.1401356 4.59016393,11.2726897 4.59016393,10.4049086 L4.59016393,9.59140581 C4.59016393,8.72395983 4.69508197,7.85617881 4.69508197,7.85617881 C4.69508197,7.85617881 4.79737705,7.11739226 5.11180328,6.79205814 C5.51114754,6.36486863 5.95803279,6.36285833 6.16327869,6.33806459 C7.63147541,6.2295082 9.83377049,6.2295082 9.83377049,6.2295082 L9.83836066,6.2295082 C9.83836066,6.2295082 12.0406557,6.2295082 13.5088525,6.33806459 C13.7137705,6.36285833 14.1609836,6.36486863 14.56,6.79205814 C14.8744262,7.11739226 14.9770492,7.85617881 14.9770492,7.85617881 Z M8.75278689,11.3906275 L11.5872131,9.88960083 L8.75245902,8.37818762 L8.75278689,11.3906275 Z" id="Combined-Shape" fill="#FFFFFF"></path>
                    </g>
                </g>
            </g>
        </g>
    </g>
</svg>