<?xml version="1.0" encoding="utf-8"?>
<!-- Generator: Adobe Illustrator 21.0.2, SVG Export Plug-In . SVG Version: 6.00 Build 0)  -->
<svg version="1.1" id="Layer_1" xmlns="http://www.w3.org/2000/svg" xmlns:xlink="http://www.w3.org/1999/xlink" x="0px" y="0px"
	 viewBox="0 0 42 42" style="enable-background:new 0 0 42 42;" xml:space="preserve">
<style type="text/css">
	.st0{fill:#10B154;}
</style>
<title>Page 1</title>
<desc>Created with Sketch.</desc>
<path class="st0" d="M41.305,20.958c0-0.262-0.137-0.505-0.36-0.641l-5.284-3.209l5.284-3.208c0.224-0.136,0.36-0.379,0.36-0.641
	s-0.137-0.505-0.36-0.641L21.346,0.719c-0.239-0.146-0.539-0.146-0.778,0L0.971,12.618c-0.224,0.136-0.361,0.379-0.361,0.641
	s0.137,0.505,0.361,0.641l5.283,3.208l-5.283,3.209c-0.224,0.136-0.361,0.379-0.361,0.641c0,0.262,0.137,0.505,0.361,0.641
	l5.284,3.208l-5.284,3.208c-0.224,0.136-0.361,0.379-0.361,0.641s0.137,0.505,0.361,0.641l19.597,11.898
	c0.12,0.073,0.254,0.109,0.389,0.109s0.27-0.036,0.389-0.109l19.597-11.898c0.224-0.136,0.36-0.379,0.36-0.641
	s-0.137-0.505-0.36-0.641l-5.283-3.208l5.284-3.208C41.168,21.464,41.305,21.221,41.305,20.958z M20.957,2.238l18.152,11.021
	l-5.334,3.239c-0.001,0.001-0.002,0.001-0.003,0.002l-12.815,7.781L2.806,13.259L20.957,2.238z M39.108,28.656L20.957,39.678
	L2.805,28.656l4.708-2.858c0.06-0.036,0.103-0.088,0.148-0.137l12.907,7.836c0.12,0.072,0.254,0.108,0.389,0.108
	s0.27-0.036,0.389-0.108l12.869-7.812L39.108,28.656z M20.957,31.979L2.805,20.958l4.894-2.973l12.868,7.813
	c0.12,0.073,0.254,0.109,0.389,0.109s0.27-0.036,0.389-0.109l12.868-7.813l4.895,2.972L20.957,31.979z"/>
</svg>
